<svg width="191" height="148" viewBox="0 0 191 148" fill="none" xmlns="http://www.w3.org/2000/svg">
<g clip-path="url(#clip0_2127_11796)">
<path d="M132.595 58.4014C131.618 60.7416 128.007 68.5842 127.26 70.0365C119.063 85.9933 107.335 100.85 92.9652 113.557C78.5814 100.85 56.0777 72.0493 53.3386 58.4014H0.339844L48.9137 68.1106C49.0562 68.431 62.5049 100.129 92.9652 123.953C123.749 97.012 137.243 68.3579 137.243 68.041C137.243 68.041 137.166 68.1211 137.166 68.1141L185.931 58.4049H132.595V58.4014Z" fill="#A8AAAC"/>
<path d="M92.9234 122.432C64.5 99.8754 51.4059 70.9322 49.9981 67.6796L49.7548 67.1189L49.1395 66.9656L12.1582 59.5723H52.4035C56.0637 74.2929 78.3971 102.251 92.1934 114.436L92.9651 115.118L93.7368 114.436C108.152 101.693 120.102 86.5235 128.299 70.5735C128.997 69.2154 132.081 62.5324 133.363 59.5723H174.064L136.801 66.6696L135.671 68.6338C133.12 73.7566 119.824 98.6531 92.9234 122.432Z" fill="#BBBDBF"/>
<path d="M40.1862 42.8001H48.3374C48.0037 41.24 45.5045 32.5615 45.1187 20.9647C46.231 21.0936 47.3746 21.1633 48.5217 21.1633C56.9719 21.1633 65.064 17.5728 72.8885 14.1007C80.0456 10.9177 86.8204 7.91228 92.966 7.91228C99.1116 7.91228 105.872 10.9177 113.03 14.1007C120.854 17.5763 128.943 21.1633 137.389 21.1633C138.537 21.1633 139.67 21.0936 140.782 20.9647C140.612 24.5413 140.261 28.2467 139.725 31.8581C139.197 35.4625 138.484 38.8997 137.595 42.8001H186.269L147.473 33.662C148.721 25.5094 149.097 17.4056 148.634 9.62219C132.036 21.6996 112.501 0 92.966 0C73.4308 0 53.8886 21.6578 37.2907 9.57692C36.8284 17.3673 37.2177 25.5303 38.4656 33.6864L0 42.8001H40.1862Z" fill="#A8AAAC"/>
<path d="M139.054 41.6302C139.916 37.7611 140.458 34.9055 140.879 32.0289C141.41 28.4419 141.772 24.74 141.949 21.0207L142.015 19.6451L140.649 19.8053C139.565 19.9307 138.47 19.9933 137.392 19.9933C129.185 19.9933 121.215 16.4551 113.505 13.0318C106.23 9.80002 99.3577 6.74585 92.9688 6.74585C86.5798 6.74585 79.6939 9.80002 72.4151 13.0318C64.7088 16.4551 56.7383 19.9933 48.5244 19.9933C47.4399 19.9933 46.338 19.9307 45.2535 19.8053L43.9083 19.6486L43.9535 21.0068C44.2767 30.7056 46.0426 38.3149 46.8559 41.6337H10.0137L39.7788 34.5816L39.6154 33.5125C38.4892 26.1574 38.0651 18.8232 38.3536 11.6806C41.4612 13.5193 44.8121 14.4144 48.5349 14.4144C55.5495 14.4144 62.6405 11.2662 70.1522 7.93339C77.6395 4.61107 85.3876 1.17383 92.9653 1.17383C100.543 1.17383 108.288 4.62152 115.778 7.95429C123.29 11.2975 130.388 14.4561 137.406 14.4527C141.125 14.4527 144.469 13.5577 147.57 11.7224C147.858 18.8755 147.438 26.1853 146.319 33.4846L146.155 34.5537L176.198 41.6302H139.054Z" fill="#BBBDBF"/>
<path d="M58.9888 28.7061C58.9888 28.7061 58.9887 28.6853 58.9818 28.6748C58.9713 28.6748 58.9713 28.6853 58.9888 28.7061Z" fill="#016F7A"/>
<path d="M58.9888 28.7061C58.9888 28.7061 58.9887 28.6853 58.9818 28.6748C58.9713 28.6748 58.9713 28.6853 58.9888 28.7061Z" fill="#016F7A"/>
<path d="M55.2477 147.265L51.4728 138.113H36.3312L32.5563 147.265H14.7695L36.8666 97.5938H51.1217L73.2882 147.265H55.2512H55.2477ZM45.4905 123.646L43.9333 119.878L42.376 123.646H45.4905Z" fill="white"/>
<path d="M53.7987 134.634H34.0062L30.2313 143.786H20.123L39.1229 101.08H48.8662L67.9252 143.786H57.5736L53.7987 134.634ZM50.6946 127.129L43.9337 110.779L37.1729 127.129H50.6911H50.6946Z" fill="#A8AAAC"/>
<path d="M80.5594 147.265L59.168 97.5938H77.4066L88.1023 122.748L98.951 97.5938H116.331L94.8701 147.265H80.5594Z" fill="white"/>
<path d="M111.041 101.076L92.5899 143.782H82.8467L64.4551 101.076H75.1125L88.0815 131.58L101.235 101.076H111.041Z" fill="#A8AAAC"/>
<path d="M111.098 147.265V97.5938H150.262V112.492H127.852V114.801H147.644V129.452H127.852V132.37H151.054V147.265H111.098Z" fill="white"/>
<path d="M147.577 135.853V143.782H114.572V101.076H146.784V109.006H124.375V118.28H144.167V125.966H124.375V135.849H147.577V135.853Z" fill="#A8AAAC"/>
<path d="M169.439 148C162.046 148 154.398 145.775 149.956 142.33L147.787 140.648L154.02 126.795L157.478 129.32C160.628 131.618 165.344 133.105 169.498 133.105C172.94 133.105 174.111 132.318 174.236 132.109C174.236 132.109 174.236 132.099 174.236 132.078C173.468 131.284 169.849 130.441 167.659 129.929C163.93 129.062 159.706 128.077 156.22 125.921C151.729 123.138 149.452 119.012 149.452 113.648C149.452 108.86 151.486 104.57 155.177 101.571C158.966 98.4925 164.402 96.8662 170.892 96.8662C177.382 96.8662 183.201 98.4403 187.546 101.185L190.007 102.741L184.372 116.626L180.924 114.662C177.597 112.764 174.107 111.761 170.83 111.761C168.261 111.761 166.366 112.304 166.217 113.063C167.044 113.84 170.6 114.655 172.759 115.149C176.489 116.003 180.715 116.971 184.202 119.102C188.707 121.857 190.994 125.952 190.994 131.28C190.994 136.024 188.943 140.29 185.22 143.292C181.397 146.374 175.936 148.003 169.432 148.003L169.439 148Z" fill="white"/>
<path d="M152.082 139.576L155.429 132.134C159.023 134.756 164.38 136.588 169.496 136.588C175.343 136.588 177.717 134.634 177.717 132.012C177.717 124.019 152.933 129.511 152.933 113.648C152.933 106.387 158.78 100.349 170.897 100.349C176.257 100.349 181.735 101.63 185.695 104.131L182.65 111.635C178.69 109.379 174.613 108.278 170.835 108.278C164.988 108.278 162.736 110.476 162.736 113.161C162.736 121.031 187.52 115.602 187.52 131.28C187.52 138.42 181.614 144.521 169.434 144.521C162.673 144.521 155.853 142.508 152.078 139.579L152.082 139.576Z" fill="#A8AAAC"/>
<path d="M20.1363 143.452H30.2445L34.0195 134.3H53.8119L57.5869 143.452H67.9384L61.2923 128.564C46.6478 129.195 34.8364 130.347 25.3086 131.821L20.1328 143.456L20.1363 143.452Z" fill="#D7D7D7"/>
<path d="M88.0956 131.253L86.7295 128.042C83.111 128.045 79.6211 128.077 76.2598 128.133L82.8572 143.456H92.6005L99.2223 128.129C95.8784 128.08 92.6283 128.052 89.4791 128.045L88.0956 131.256V131.253Z" fill="#D7D7D7"/>
<path d="M114.587 143.451H147.592V135.522H124.39V128.821C121.042 128.689 117.775 128.574 114.584 128.477V143.451H114.587Z" fill="#D7D7D7"/>
<path d="M177.721 132.009C177.527 134.464 175.111 136.254 169.514 136.254C164.401 136.254 159.041 134.422 155.447 131.8L152.1 139.242C155.875 142.171 162.694 144.184 169.455 144.184C180.575 144.184 186.463 139.096 187.405 132.778C184.124 132.51 180.898 132.253 177.725 132.009H177.721Z" fill="#D7D7D7"/>
<path d="M102.345 24.7956L106.624 19.1713C106.624 19.1713 106.464 14.4037 99.5992 12.7809C92.7375 11.158 85.2328 12.0008 85.5143 12.7147C85.7368 13.2789 85.9558 13.5053 86.1366 13.5679C83.0916 14.4281 78.8925 19.3036 77.6099 22.6399C76.8278 24.6737 76.7826 33.4322 76.6088 35.4834C76.5115 36.6361 78.5554 40.3868 81.3119 44.2733C83.6269 45.1195 85.9906 45.8474 88.389 46.4185C91.1212 47.0697 93.8985 47.5294 96.6932 47.7976C97.6769 47.1046 98.6363 46.3802 99.5644 45.6071C101.136 44.3011 104.563 43.1275 105.866 41.5534C106.635 40.6271 107.611 38.1963 108.314 37.2177C101.58 31.1268 102.349 24.7921 102.349 24.7921L102.345 24.7956Z" fill="url(#paint0_linear_2127_11796)"/>
<path d="M79.8507 42.4036C81.7555 45.315 84.6823 47.0388 87.7829 49.7622C89.6948 51.4407 91.2451 52.7885 92.4999 53.8646C93.1777 54.4462 93.7652 54.9476 94.2727 55.3725C98.8262 51.486 103.477 47.711 107.923 43.7026C106.102 41.1534 99.6813 31.472 101.374 23.6572C101.392 23.5806 102.768 22.407 102.785 22.3304C103.376 19.6976 105.271 19.2727 105.271 19.2727C105.271 19.2727 105.413 17.0335 102.813 15.1982C99.4415 12.8161 90.9357 12.2206 87.7795 12.8545C87.7795 12.8545 88.3322 13.1783 88.8848 13.3908C89.6322 13.6798 89.9172 13.9515 89.9172 13.9515C89.9172 13.9515 87.7134 13.6903 85.4262 15.146C83.1355 16.6051 81.4218 18.6912 80.6467 19.7359C80.3651 20.119 80.2052 20.3628 80.1879 20.3906C80.233 20.3384 80.8935 19.6001 81.7868 19.0394C81.7938 19.0324 81.8042 19.0255 81.8146 19.022C81.9363 18.9454 82.0649 18.8722 82.197 18.8026C82.2804 18.7608 82.3638 18.719 82.4473 18.6807C83.5909 18.1583 84.8457 17.9877 84.8457 17.9877C84.6233 18.1305 80.5911 22.2573 78.5854 26.4084C77.9597 27.7039 77.5322 28.9089 77.2367 29.9745C76.4894 32.6769 76.2773 36.156 76.2773 36.156C76.2773 36.156 76.406 36.4276 76.6562 36.9152C76.7397 37.0754 76.8335 37.2599 76.9413 37.4619C77.3028 38.148 77.8103 39.0708 78.4464 40.14C78.8635 40.8365 79.3328 41.5991 79.8542 42.3966L79.8507 42.4036Z" fill="white"/>
<path d="M94.4718 12.8744C95.5911 13.1635 96.6791 13.5396 97.774 13.9157C98.6917 14.2291 99.6198 14.5843 100.437 15.1207C101.257 15.6604 101.855 16.4057 102.366 17.2415C102.929 18.1644 103.384 19.1499 103.913 20.0902C103.913 20.0972 103.92 20.1007 103.923 20.1076C104.594 19.425 105.268 19.2753 105.268 19.2753C105.268 19.2753 105.411 17.036 102.811 15.2008C100.902 13.853 97.3534 13.0764 94.0547 12.7734C94.1937 12.8083 94.3328 12.8396 94.4718 12.8744Z" fill="white"/>
<path d="M85.068 20.7943C85.068 20.7943 86.2464 20.3137 87.2718 20.1779C87.2718 20.1779 82.7391 24.7923 80.9385 30.4931C80.0799 33.2095 79.3256 36.1383 78.7694 38.4576C78.1333 37.3885 77.6258 36.4656 77.2643 35.7796C77.1774 33.8189 77.1392 31.7468 77.2296 29.9847C77.525 28.9156 77.9526 27.7106 78.5783 26.4151C80.5839 22.2639 84.6196 18.1372 84.8386 17.9944C84.8386 17.9944 83.5837 18.165 82.4401 18.6874C83.7784 17.9944 85.4608 17.3362 87.3622 17.0332C87.3622 17.0332 85.9474 18.3914 85.0645 20.7943H85.068Z" fill="#BBBDBF"/>
<path d="M101.372 23.6606L101.292 20.7666H100.28C100.28 20.7666 98.6847 23.7163 94.5726 25.0675C91.5206 26.0705 89.2577 26.4466 86.901 28.6371C86.9879 28.6162 88.2358 28.4316 88.8962 28.4316C88.8962 28.4316 82.3509 32.3042 80.5747 38.0468C79.2538 42.3234 79.6014 44.7089 79.8968 44.5626C81.8017 47.474 84.6764 47.0422 87.777 49.7655C89.6853 51.4441 91.2425 52.7918 92.4939 53.8679L94.0929 55.5256C96.3558 53.5928 98.643 51.6844 100.92 49.7655L104.198 39.5443C104.198 39.5443 99.3973 32.743 101.368 23.6641L101.372 23.6606Z" fill="white"/>
<path d="M100.529 43.9497C100.946 44.8726 101.415 45.7676 101.923 46.6417L104.2 39.5408C104.2 39.5408 99.3993 32.7395 101.37 23.6606L101.29 20.7666H101.242C99.7886 22.7307 98.8466 25.064 98.3182 27.4496C97.7412 30.0614 97.6995 32.7186 98.0784 35.3618C98.5025 38.3185 99.302 41.2299 100.526 43.9497H100.529Z" fill="white"/>
<path d="M99.6081 26.5019L95.2352 25.5547C95.2352 25.5547 90.8833 27.5537 91.3108 32.2551C91.3108 32.2551 92.4127 30.5103 93.4416 29.8312C93.4416 29.8312 91.3595 32.8366 91.6097 38.9276C91.8183 43.9737 92.9828 47.4179 92.9828 47.4179C92.9828 47.4179 92.4857 40.9126 94.1438 37.2211C94.1438 37.2211 94.5539 46.2165 98.7286 51.6039C100.095 50.4582 101.457 49.3124 102.816 48.1562L104.2 39.5405C104.2 39.5405 98.3324 34.8809 99.6046 26.5019H99.6081Z" fill="url(#paint1_linear_2127_11796)"/>
<path d="M107.079 18.2619C105.852 17.7291 103.109 17.4574 101.747 17.5933C100.861 17.6803 100.562 17.7012 100.562 17.7012C100.562 17.7012 99.5918 18.2898 99.0982 19.5017C99.0982 19.5017 99.4736 19.4669 99.9707 19.6445C99.9707 19.6445 99.6022 21.7688 98.9348 23.0155C98.6845 23.4787 97.3046 24.3842 95.2363 25.5543C95.3232 25.8921 96.5468 26.2961 96.6128 26.6408C97.5583 26.5468 98.177 26.4458 98.177 26.4458C98.177 26.4458 97.9163 27.9189 98.3369 28.6328C98.3369 28.6328 99.8525 26.2578 103.972 25.5021C105.644 25.1956 106.62 25.0667 107.023 26.2473C107.249 26.909 107.347 27.8005 107.347 27.8005C107.347 27.8005 110.051 27.2085 110.555 23.9523C111.01 21.027 108.977 19.0838 107.072 18.2549L107.079 18.2619Z" fill="url(#paint2_linear_2127_11796)"/>
<path d="M106.308 19.0946C105.213 18.5409 103.607 18.311 102.516 18.3145C102.081 18.3145 101.497 18.3946 101.195 18.5234C102.088 18.4155 103.12 19.3871 103.12 19.3871C102.303 19.3279 101.344 19.5194 101.09 19.7319C100.837 19.9443 100.169 20.5259 98.9074 22.2741C97.6456 24.0223 95.2402 25.5546 95.2402 25.5546C95.2402 25.5546 97.3189 24.6178 99.6583 23.6149C101.848 22.6746 105.72 22.2497 107.107 22.9323C108.494 23.6149 108.4 25.5546 108.4 25.5546C108.4 25.5546 109.252 25.0392 109.388 23.6811C109.655 20.9891 107.403 19.6483 106.311 19.0946H106.308Z" fill="#BBBDBF"/>
<path d="M106.307 19.0946C105.212 18.5409 103.606 18.311 102.514 18.3145C102.08 18.3145 101.496 18.3946 101.193 18.5234C102.483 18.2866 104.53 18.5931 105.987 19.4324C107.304 20.1916 108.215 21.6891 108.187 22.6746C108.187 22.6746 108.024 22.6224 107.11 22.6015C106.79 22.5945 105.851 22.6363 105.851 22.6363C106.366 22.6851 106.8 22.7826 107.113 22.9358C108.5 23.6184 108.406 25.5581 108.406 25.5581C108.406 25.5581 109.258 25.0427 109.393 23.6845C109.661 20.9925 107.408 19.6518 106.317 19.0981L106.307 19.0946Z" fill="white"/>
<path d="M95.2359 25.5546C95.2359 25.5546 96.8557 24.2557 99.6539 23.6149C103.224 22.8 105.268 24.0885 105.268 24.0885C105.268 24.0885 102.223 24.5552 100.957 25.1959C99.6956 25.8367 99.3167 26.178 99.3167 26.178C99.3167 26.178 99.4419 25.3805 99.7373 24.9696C99.7373 24.9696 97.0017 25.0044 95.2324 25.5581L95.2359 25.5546Z" fill="#BBBDBF"/>
<path d="M98.3535 22.9424C96.3339 24.3215 91.7942 25.1816 90.6367 27.5985C90.6367 27.5985 91.8359 27.0065 93.8207 26.5154C95.8056 26.0244 98.3569 22.9459 98.3569 22.9459L98.3535 22.9424Z" fill="url(#paint3_linear_2127_11796)"/>
<path d="M95.7152 18.3946C94.6341 18.1334 93.5357 17.7817 92.5763 17.2001C91.3945 17.0643 90.0215 17.5414 90.0215 17.5414C90.0215 17.5414 90.8488 17.5344 91.1616 17.8479C91.3111 17.9976 91.1547 18.2727 91.1477 19.0702C91.1338 20.902 93.3376 21.0378 95.0652 20.6652C96.6398 20.3239 97.8321 19.7807 98.1762 18.823C97.0986 18.6349 96.7719 18.6593 95.7117 18.4016L95.7152 18.3946Z" fill="#BBBDBF"/>
<path d="M98.1169 17.4402C98.1169 17.4402 97.8353 18.384 97.2444 18.2865C96.4067 18.1472 93.9318 16.2736 92.1938 16.2666C91.3978 16.2631 90.6365 17.1442 90.0352 17.5377C90.0352 17.5377 91.2935 17.2731 92.2459 17.6944C92.2459 17.6944 92.1069 18.5651 93.2088 19.3382C94.3107 20.1113 96.2816 19.3835 96.2816 19.3835C96.2816 19.3835 96.3024 20.0417 94.5575 20.376C94.5575 20.376 96.8586 20.6198 97.8388 19.4601C98.5827 18.5825 98.1204 17.4402 98.1204 17.4402H98.1169Z" fill="url(#paint4_linear_2127_11796)"/>
<path d="M95.9731 18.5334C94.892 18.5717 93.4843 17.8613 93.1401 17.8439C93.1297 17.8299 93.154 19.0384 93.9327 19.5607C95.1736 20.3931 95.9696 18.5369 95.9696 18.5369L95.9731 18.5334Z" fill="#FFC507"/>
<path d="M93.6505 17.9902C93.6436 18.3977 93.8695 18.7459 94.2797 18.8051C94.6899 18.8678 95.2982 18.4778 95.2982 18.4778C95.2982 18.4778 94.9575 18.3002 94.5161 18.234C94.0364 18.1609 93.6436 17.9902 93.6505 17.9902Z" fill="white"/>
<path d="M94.5156 18.2342C94.7763 18.3178 94.8319 18.4432 94.7242 18.6138C94.6129 18.7845 94.1367 18.774 94.1367 18.774C94.1367 18.774 94.3557 18.9551 94.7763 18.9272C95.5445 18.882 95.6314 18.5233 95.6314 18.5233C95.6314 18.5233 95.4367 18.2377 95.0648 18.182C94.6929 18.1298 94.5156 18.2307 94.5156 18.2307V18.2342Z" fill="#092439"/>
<path d="M102.997 48.0032C104.951 46.3386 106.887 44.6496 108.782 42.9153C106.95 39.4084 101.718 29.1907 101.103 25.7256C101.103 25.7256 98.9827 29.7758 101.141 38.3811C102.055 42.0168 102.761 46.45 102.994 48.0032H102.997Z" fill="url(#paint5_linear_2127_11796)"/>
<path d="M92.3359 18.2871C92.3359 18.2871 92.3359 19.2239 93.5525 19.7741C94.5154 20.2095 96.2812 19.3841 96.2812 19.3841C96.2812 19.3841 94.5571 19.8821 93.3926 19.2413C92.329 18.6528 92.3394 18.2871 92.3394 18.2871H92.3359Z" fill="white"/>
<path d="M80.7295 46.2341L79.3043 43.3471C79.3043 43.3471 79.0714 36.1418 83.1349 29.3717C83.1349 29.3717 79.6763 32.2727 78.1468 36.894C78.8316 33.0562 80.2672 27.6131 83.267 21.4072C83.267 21.4072 79.7249 23.3714 76.8155 28.6334C74.5283 32.7672 75.3243 40.2093 75.7692 43.2113C77.4551 44.1724 79.1062 45.1824 80.7295 46.2306V46.2341Z" fill="url(#paint6_linear_2127_11796)"/>
<path d="M87.4505 41.6469C86.7762 35.7336 87.2976 31.5059 87.2976 31.5059C87.2976 31.5059 85.0938 34.062 83.474 39.6549C82.525 42.932 82.1913 45.5334 82.0801 47.1249C84.8991 48.9951 87.6521 50.9696 90.3773 52.986C89.2893 50.3776 87.9997 46.4668 87.4505 41.6504V41.6469Z" fill="url(#paint7_linear_2127_11796)"/>
<path d="M102.612 20.5014C102.529 20.477 102.456 20.4527 102.39 20.4352C102.668 20.2646 103.116 20.1532 103.116 20.1532C103.116 20.1532 102.046 19.9547 101.705 20.376C101.368 20.7939 101.361 21.4626 102.004 21.1213C102.108 21.09 102.23 21.0412 102.358 20.9924C102.786 20.8357 102.953 20.6059 102.609 20.5014H102.612Z" fill="white"/>
<path d="M104.948 17.8546C105.271 17.5446 103.116 17.5446 100.961 16.5382C98.6491 15.4586 97.4395 16.176 97.4395 16.176C97.4395 16.176 98.1729 16.183 99.0975 16.7297C100.453 17.5342 99.6537 18.5476 102.567 18.168C104.517 17.9138 104.951 17.8511 104.951 17.8511L104.948 17.8546Z" fill="url(#paint8_linear_2127_11796)"/>
<path d="M99.3862 40.7591C97.4709 36.1134 97.742 31.8125 97.742 31.8125C96.4629 39.2128 99.6052 47.1669 100.811 49.8519C101.653 49.1415 102.494 48.4311 103.331 47.7172C102.713 46.9371 100.94 44.5202 99.3897 40.7556L99.3862 40.7591Z" fill="#BBBDBF"/>
<path d="M101.751 30.8555C101.956 33.1226 102.363 36.2952 103.148 38.7573C103.148 38.7573 100.607 37.232 99.4323 34.8882C99.4323 34.8882 98.8171 39.5792 100.496 44.1517C100.496 44.1517 102.94 43.5736 105.335 42.1423C107.733 40.711 107.879 39.4956 107.879 39.4956C107.879 39.4956 102.94 35.529 101.751 30.859V30.8555Z" fill="#BBBDBF"/>
<path d="M106.074 41.6577C107.764 40.4458 107.878 39.495 107.878 39.495C107.878 39.495 102.939 35.5285 101.75 30.8584C101.972 34.623 105.393 40.6617 106.074 41.6612V41.6577Z" fill="white"/>
<path fill-rule="evenodd" clip-rule="evenodd" d="M82.6467 33.0422C62.0547 28.9781 49.9826 23.0578 42.8984 17.4893C43.9517 25.304 45.7279 32.8855 48.1646 40.1639C60.3098 44.9907 74.2243 47.1638 74.2243 47.1638C74.2243 47.1638 62.809 46.422 49.9791 45.2205C51.6649 49.6155 53.5976 53.892 55.7527 58.0292C64.8356 57.9387 73.4908 56.887 73.4908 56.887C73.4908 56.887 66.08 58.6909 57.1223 60.5854C58.8707 63.758 60.7547 66.8435 62.7639 69.8384C69.9488 67.7141 76.143 65.4156 76.143 65.4156L64.4289 72.2588C66.8377 75.6717 69.4169 78.9557 72.1526 82.1004C76.5532 78.6945 80.3316 73.9339 84.2908 70.2738C84.2908 70.2738 80.3003 78.2139 75.7746 86.0914C78.8196 89.3022 82.0349 92.3494 85.4066 95.219C87.1585 90.3087 88.4342 84.2003 90.1514 78.3462C90.1514 78.3462 90.8813 86.0426 87.8224 97.225C89.7134 98.7538 91.6461 100.227 93.6274 101.644C95.6052 100.227 97.5414 98.7538 99.4323 97.225C96.37 86.0426 97.1034 78.3462 97.1034 78.3462C98.8171 84.2003 100.093 90.3122 101.848 95.219C105.22 92.3494 108.435 89.3022 111.48 86.0914C106.954 78.2139 102.964 70.2738 102.964 70.2738C106.923 73.9339 110.702 78.6945 115.102 82.1004C117.838 78.9557 120.417 75.6682 122.826 72.2588L111.112 65.4156C111.112 65.4156 117.309 67.7141 124.491 69.8384C126.5 66.8435 128.384 63.758 130.132 60.5854C121.175 58.6909 113.764 56.887 113.764 56.887C113.764 56.887 122.419 57.9387 131.502 58.0292C133.657 53.892 135.59 49.6155 137.276 45.2205C124.446 46.422 113.03 47.1638 113.03 47.1638C113.03 47.1638 126.945 44.9907 139.09 40.1639C141.527 32.882 143.303 25.3005 144.356 17.4893C137.272 23.0578 125.2 28.9746 104.608 33.0422C104.796 46.4603 94.632 43.831 93.6274 51.0015C92.6228 43.8275 82.4589 46.4603 82.6467 33.0422Z" fill="url(#paint9_linear_2127_11796)"/>
<path fill-rule="evenodd" clip-rule="evenodd" d="M48.1631 40.1671C60.3083 44.9938 74.2228 47.1669 74.2228 47.1669C74.2228 47.1669 50.5998 38.2796 44.6523 27.4385C45.6013 31.7707 46.7762 36.0194 48.1631 40.1671Z" fill="url(#paint10_linear_2127_11796)"/>
<path fill-rule="evenodd" clip-rule="evenodd" d="M90.1502 78.3496C90.1502 78.3496 86.1562 85.1579 81.0117 91.2976C82.4473 92.6419 83.9107 93.9513 85.4089 95.2259C87.1608 90.3155 88.4365 84.2072 90.1536 78.3531L90.1502 78.3496Z" fill="url(#paint11_linear_2127_11796)"/>
<path fill-rule="evenodd" clip-rule="evenodd" d="M72.1545 82.104C76.5552 78.6981 80.3336 73.9375 84.2928 70.2773C84.2928 70.2773 77.3199 74.9265 68.748 78.0085C69.8569 79.3981 70.9901 80.7632 72.1545 82.1005V82.104Z" fill="url(#paint12_linear_2127_11796)"/>
<path fill-rule="evenodd" clip-rule="evenodd" d="M62.7658 69.8388C69.9507 67.7145 76.145 65.416 76.145 65.416C76.145 65.416 68.675 66.21 60.6211 66.5339C61.3198 67.6483 62.0324 68.7488 62.7623 69.8353L62.7658 69.8388Z" fill="url(#paint13_linear_2127_11796)"/>
<path fill-rule="evenodd" clip-rule="evenodd" d="M55.7521 58.0325C64.8349 57.942 73.4902 56.8903 73.4902 56.8903C73.4902 56.8903 61.1886 55.5216 53.2285 52.9062C54.0315 54.6371 54.8727 56.347 55.7521 58.036V58.0325Z" fill="url(#paint14_linear_2127_11796)"/>
<path fill-rule="evenodd" clip-rule="evenodd" d="M139.089 40.1671C126.944 44.9938 113.029 47.1669 113.029 47.1669C113.029 47.1669 136.652 38.2796 142.6 27.4385C141.651 31.7707 140.476 36.0194 139.089 40.1671Z" fill="url(#paint15_linear_2127_11796)"/>
<path fill-rule="evenodd" clip-rule="evenodd" d="M97.0992 78.3496C97.0992 78.3496 101.093 85.1579 106.238 91.2976C104.802 92.6419 103.339 93.9513 101.84 95.2259C100.089 90.3155 98.8129 84.2072 97.0957 78.3531L97.0992 78.3496Z" fill="url(#paint16_linear_2127_11796)"/>
<path fill-rule="evenodd" clip-rule="evenodd" d="M115.097 82.104C110.697 78.6981 106.918 73.9375 102.959 70.2773C102.959 70.2773 109.932 74.9265 118.504 78.0085C117.395 79.3981 116.262 80.7632 115.097 82.1005V82.104Z" fill="url(#paint17_linear_2127_11796)"/>
<path fill-rule="evenodd" clip-rule="evenodd" d="M124.487 69.8388C117.302 67.7145 111.107 65.416 111.107 65.416C111.107 65.416 118.577 66.21 126.631 66.5339C125.933 67.6483 125.22 68.7488 124.49 69.8353L124.487 69.8388Z" fill="url(#paint18_linear_2127_11796)"/>
<path fill-rule="evenodd" clip-rule="evenodd" d="M131.498 58.0325C122.415 57.942 113.76 56.8903 113.76 56.8903C113.76 56.8903 126.061 55.5216 134.021 52.9062C133.218 54.6371 132.377 56.347 131.498 58.036V58.0325Z" fill="url(#paint19_linear_2127_11796)"/>
<path d="M94.0983 53.5684L96.9939 59.4468L103.47 60.3871L98.784 64.9631L99.8894 71.4232L94.0983 68.3725L88.3073 71.4232L89.4161 64.9631L84.7305 60.3871L91.2028 59.4468L94.0983 53.5684Z" fill="white"/>
<path d="M95.6451 64.4265H92.5132L91.9154 65.8752H90.3164L93.3232 59.1191H94.863L97.8767 65.8752H96.2395L95.6417 64.4265H95.6451ZM95.155 63.239L94.0844 60.6515L93.0138 63.239H95.1515H95.155Z" fill="url(#paint20_linear_2127_11796)"/>
</g>
<defs>
<linearGradient id="paint0_linear_2127_11796" x1="76.6088" y1="29.8208" x2="108.314" y2="29.8208" gradientUnits="userSpaceOnUse">
<stop stop-color="#195688"/>
<stop offset="0.22" stop-color="#155F92"/>
<stop offset="0.58" stop-color="#0C79AC"/>
<stop offset="1" stop-color="#009FD3"/>
</linearGradient>
<linearGradient id="paint1_linear_2127_11796" x1="91.283" y1="38.5793" x2="104.203" y2="38.5793" gradientUnits="userSpaceOnUse">
<stop stop-color="#195688"/>
<stop offset="0.22" stop-color="#155F92"/>
<stop offset="0.58" stop-color="#0C79AC"/>
<stop offset="1" stop-color="#009FD3"/>
</linearGradient>
<linearGradient id="paint2_linear_2127_11796" x1="95.2363" y1="23.0956" x2="110.628" y2="23.0956" gradientUnits="userSpaceOnUse">
<stop stop-color="#195688"/>
<stop offset="0.22" stop-color="#155F92"/>
<stop offset="0.58" stop-color="#0C79AC"/>
<stop offset="1" stop-color="#009FD3"/>
</linearGradient>
<linearGradient id="paint3_linear_2127_11796" x1="90.6332" y1="25.2687" x2="98.3535" y2="25.2687" gradientUnits="userSpaceOnUse">
<stop stop-color="#195688"/>
<stop offset="0.22" stop-color="#155F92"/>
<stop offset="0.58" stop-color="#0C79AC"/>
<stop offset="1" stop-color="#009FD3"/>
</linearGradient>
<linearGradient id="paint4_linear_2127_11796" x1="90.0352" y1="18.3317" x2="98.2559" y2="18.3317" gradientUnits="userSpaceOnUse">
<stop stop-color="#195688"/>
<stop offset="0.22" stop-color="#155F92"/>
<stop offset="0.58" stop-color="#0C79AC"/>
<stop offset="1" stop-color="#009FD3"/>
</linearGradient>
<linearGradient id="paint5_linear_2127_11796" x1="100.171" y1="36.8662" x2="108.782" y2="36.8662" gradientUnits="userSpaceOnUse">
<stop stop-color="#195688"/>
<stop offset="0.22" stop-color="#155F92"/>
<stop offset="0.58" stop-color="#0C79AC"/>
<stop offset="1" stop-color="#009FD3"/>
</linearGradient>
<linearGradient id="paint6_linear_2127_11796" x1="75.2652" y1="33.8224" x2="83.267" y2="33.8224" gradientUnits="userSpaceOnUse">
<stop stop-color="#195688"/>
<stop offset="0.22" stop-color="#155F92"/>
<stop offset="0.58" stop-color="#0C79AC"/>
<stop offset="1" stop-color="#009FD3"/>
</linearGradient>
<linearGradient id="paint7_linear_2127_11796" x1="82.0801" y1="42.2425" x2="90.3773" y2="42.2425" gradientUnits="userSpaceOnUse">
<stop stop-color="#195688"/>
<stop offset="0.22" stop-color="#155F92"/>
<stop offset="0.58" stop-color="#0C79AC"/>
<stop offset="1" stop-color="#009FD3"/>
</linearGradient>
<linearGradient id="paint8_linear_2127_11796" x1="97.4395" y1="17.0989" x2="104.979" y2="17.0989" gradientUnits="userSpaceOnUse">
<stop stop-color="#195688"/>
<stop offset="0.22" stop-color="#155F92"/>
<stop offset="0.58" stop-color="#0C79AC"/>
<stop offset="1" stop-color="#009FD3"/>
</linearGradient>
<linearGradient id="paint9_linear_2127_11796" x1="93.6274" y1="90.4132" x2="93.6274" y2="11.0292" gradientUnits="userSpaceOnUse">
<stop stop-color="#195688"/>
<stop offset="0.22" stop-color="#155F92"/>
<stop offset="0.58" stop-color="#0C79AC"/>
<stop offset="1" stop-color="#009FD3"/>
</linearGradient>
<linearGradient id="paint10_linear_2127_11796" x1="44.6523" y1="37.301" x2="74.2228" y2="37.301" gradientUnits="userSpaceOnUse">
<stop stop-color="#195688"/>
<stop offset="0.22" stop-color="#155F92"/>
<stop offset="0.58" stop-color="#0C79AC"/>
<stop offset="1" stop-color="#009FD3"/>
</linearGradient>
<linearGradient id="paint11_linear_2127_11796" x1="85.5827" y1="117.047" x2="85.5827" y2="11.0256" gradientUnits="userSpaceOnUse">
<stop stop-color="#195688"/>
<stop offset="0.22" stop-color="#155F92"/>
<stop offset="0.58" stop-color="#0C79AC"/>
<stop offset="1" stop-color="#009FD3"/>
</linearGradient>
<linearGradient id="paint12_linear_2127_11796" x1="76.5204" y1="117.048" x2="76.5204" y2="11.0258" gradientUnits="userSpaceOnUse">
<stop stop-color="#195688"/>
<stop offset="0.22" stop-color="#155F92"/>
<stop offset="0.58" stop-color="#0C79AC"/>
<stop offset="1" stop-color="#009FD3"/>
</linearGradient>
<linearGradient id="paint13_linear_2127_11796" x1="68.383" y1="117.044" x2="68.383" y2="11.0261" gradientUnits="userSpaceOnUse">
<stop stop-color="#195688"/>
<stop offset="0.22" stop-color="#155F92"/>
<stop offset="0.58" stop-color="#0C79AC"/>
<stop offset="1" stop-color="#009FD3"/>
</linearGradient>
<linearGradient id="paint14_linear_2127_11796" x1="63.3611" y1="117.047" x2="63.3611" y2="11.0255" gradientUnits="userSpaceOnUse">
<stop stop-color="#195688"/>
<stop offset="0.22" stop-color="#155F92"/>
<stop offset="0.58" stop-color="#0C79AC"/>
<stop offset="1" stop-color="#009FD3"/>
</linearGradient>
<linearGradient id="paint15_linear_2127_11796" x1="113.029" y1="37.301" x2="142.6" y2="37.301" gradientUnits="userSpaceOnUse">
<stop stop-color="#195688"/>
<stop offset="0.22" stop-color="#155F92"/>
<stop offset="0.58" stop-color="#0C79AC"/>
<stop offset="1" stop-color="#009FD3"/>
</linearGradient>
<linearGradient id="paint16_linear_2127_11796" x1="101.67" y1="117.047" x2="101.67" y2="11.0256" gradientUnits="userSpaceOnUse">
<stop stop-color="#195688"/>
<stop offset="0.22" stop-color="#155F92"/>
<stop offset="0.58" stop-color="#0C79AC"/>
<stop offset="1" stop-color="#009FD3"/>
</linearGradient>
<linearGradient id="paint17_linear_2127_11796" x1="110.731" y1="117.048" x2="110.731" y2="11.0258" gradientUnits="userSpaceOnUse">
<stop stop-color="#195688"/>
<stop offset="0.22" stop-color="#155F92"/>
<stop offset="0.58" stop-color="#0C79AC"/>
<stop offset="1" stop-color="#009FD3"/>
</linearGradient>
<linearGradient id="paint18_linear_2127_11796" x1="118.866" y1="117.044" x2="118.866" y2="11.0261" gradientUnits="userSpaceOnUse">
<stop stop-color="#195688"/>
<stop offset="0.22" stop-color="#155F92"/>
<stop offset="0.58" stop-color="#0C79AC"/>
<stop offset="1" stop-color="#009FD3"/>
</linearGradient>
<linearGradient id="paint19_linear_2127_11796" x1="123.892" y1="117.047" x2="123.892" y2="11.0255" gradientUnits="userSpaceOnUse">
<stop stop-color="#195688"/>
<stop offset="0.22" stop-color="#155F92"/>
<stop offset="0.58" stop-color="#0C79AC"/>
<stop offset="1" stop-color="#009FD3"/>
</linearGradient>
<linearGradient id="paint20_linear_2127_11796" x1="90.3199" y1="62.4937" x2="97.8802" y2="62.4937" gradientUnits="userSpaceOnUse">
<stop stop-color="#195688"/>
<stop offset="0.22" stop-color="#155F92"/>
<stop offset="0.58" stop-color="#0C79AC"/>
<stop offset="1" stop-color="#009FD3"/>
</linearGradient>
<clipPath id="clip0_2127_11796">
<rect width="191" height="148" fill="white"/>
</clipPath>
</defs>
</svg>
